<?xml version="1.0" standalone="no"?><!DOCTYPE svg PUBLIC "-//W3C//DTD SVG 1.1//EN" "http://www.w3.org/Graphics/SVG/1.1/DTD/svg11.dtd"><svg t="1646927496132" class="icon" viewBox="0 0 1024 1024" version="1.1" xmlns="http://www.w3.org/2000/svg" p-id="6276" xmlns:xlink="http://www.w3.org/1999/xlink" width="200" height="200"><defs><style type="text/css"></style></defs><path d="M970.6 688.2c6.7 9.1 4.8 21.9-4.3 28.6-3.3 2.5-82.5 60.6-194.6 85.4-32.9 7.3-65.4 11-96.9 11-32.2 0-63.5-3.8-93.8-11.3-75.1-18.7-143.6-60.7-203.5-124.7-7.7-8.3-7.3-21.2 1-28.9 8.2-7.7 21.2-7.3 28.9 1 98.6 105.3 218.3 143.4 355.5 113 103.6-23 178.3-77.8 179-78.4 9.1-6.7 21.9-4.8 28.7 4.3z" fill="#8A278E" p-id="6277"></path><path d="M950.2 243.1c0.5 4 13.1 99.7-20.8 206.3-20.1 63.2-52.4 117.1-96 160-54.4 53.5-126.2 89.9-213.5 108-1.4 0.3-2.8 0.4-4.2 0.4-9.5 0-18-6.6-20-16.2-2.3-11.1 4.8-21.9 15.8-24.2C755.4 647.6 849.2 566.6 890.4 437c31.2-97.8 19.4-187.4 19.3-188.3-1.5-11.2 6.3-21.5 17.5-23 11.2-1.6 21.5 6.2 23 17.4z" fill="#8A278E" p-id="6278"></path><path d="M787.6 300.5c20.9 72.5 17.5 151.1-10 233.5-2.9 8.6-10.8 14-19.4 14-2.1 0-4.3-0.3-6.5-1-10.7-3.6-16.5-15.2-13-25.9 44.9-134.4 19.6-252.8-75.1-351.8C591.4 93.9 503.9 58.2 503.1 57.8c-10.5-4.2-15.6-16.1-11.4-26.6s16.1-15.6 26.6-11.4c3.8 1.6 95.5 38.8 173.9 120.2 46.6 48.5 78.6 102.5 95.4 160.5z" fill="#8A278E" p-id="6279"></path><path d="M692.2 309.5c7.7 8.3 7.3 21.2-1 28.9-4 3.7-8.9 5.5-13.9 5.5-5.5 0-11-2.2-15-6.4C563.6 232 444 193.9 306.8 224.4c-103.6 23-178.3 77.8-179.1 78.4-9.1 6.7-21.8 4.8-28.6-4.3-6.8-9.1-4.8-21.8 4.3-28.6 3.3-2.5 82.5-60.6 194.6-85.4 66.4-14.7 130.6-14.6 190.7 0.4 75 18.6 143.5 60.6 203.5 124.6zM654.6 480c2.9 31.3-8.5 62-31.1 84.2-20.7 20.3-48.4 31.4-77.4 31.4-4.2 0-8.4-0.2-12.7-0.7-51-5.6-91.3-45.8-95.8-95.6-2.9-31.3 8.5-62 31.2-84.2 23.6-23.2 56.4-34.4 90-30.7 50.9 5.6 91.2 45.8 95.8 95.6z m-118.9 94.5c56.2 6.2 103.4-38.6 98.5-92.7-3.7-40.9-36.9-72.7-77.7-77.2-56.2-6.2-103.4 38.6-98.5 92.7 3.7 41 36.9 72.7 77.7 77.2z" fill="#8A278E" p-id="6280"></path><path d="M634.2 481.9c4.9 54.1-42.3 98.9-98.5 92.7-40.8-4.5-73.9-36.3-77.7-77.2-4.9-54.1 42.3-98.9 98.5-92.7 40.8 4.5 74 36.3 77.7 77.2z m-39.4 53.2c13.8-13.6 20.7-32.3 19-51.4-1.4-15.2-8.3-29-18.9-39.4-10.6-10.5-24.8-17.5-40.7-19.2-2.7-0.3-5.4-0.4-8.1-0.4-18.4 0-35.8 6.9-48.7 19.6-13.9 13.6-20.8 32.3-19 51.4 2.8 30.5 27.8 55.2 59.6 58.7 21.2 2.2 42-4.8 56.8-19.3z" fill="#8A278E" p-id="6281"></path><path d="M613.9 483.7c1.7 19-5.2 37.7-19 51.4-14.8 14.5-35.6 21.5-56.9 19.2-31.8-3.5-56.8-28.2-59.6-58.7-1.8-19 5.2-37.7 19-51.4 12.9-12.7 30.4-19.6 48.7-19.6 2.7 0 5.4 0.1 8.1 0.4 15.9 1.7 30.1 8.8 40.7 19.2 10.6 10.5 17.6 24.3 19 39.5z" fill="#F39BC2" p-id="6282"></path><path d="M566.6 928.8c10.5 4.2 15.6 16.1 11.4 26.6-3.2 8-10.9 12.8-19 12.8-2.6 0-5.1-0.5-7.6-1.5-3.9-1.6-95.6-38.8-173.9-120.2-46.6-48.4-78.7-102.4-95.4-160.5-20.9-72.5-17.5-151.1 10-233.5 3.5-10.7 15.2-16.5 25.9-13 10.7 3.6 16.5 15.2 12.9 25.9-45 134.8-19.4 253.5 76.1 352.7 72.3 75.2 158.7 110.3 159.6 110.7z" fill="#8A278E" p-id="6283"></path><path d="M473.9 285.1c2.3 11-4.8 21.8-15.9 24.2-143.3 29.7-236.9 110.1-278.4 239-31.5 98-19.8 188.8-19.7 189.7 1.5 11.1-6.3 21.5-17.5 22.9-0.9 0.2-1.9 0.2-2.8 0.2-10 0-18.8-7.4-20.2-17.7-0.5-4-13.1-99.7 20.8-206.3 20.1-63.2 52.4-117.1 96-160 54.4-53.5 126.2-89.9 213.5-108 11.1-2.2 21.9 4.9 24.2 16z" fill="#8A278E" p-id="6284"></path></svg>